<?xml version="1.0" encoding="UTF-8" standalone="no"?>
<!-- Created with Inkscape (http://www.inkscape.org/) -->

<svg
   version="1.1"
   id="svg1341"
   width="844.83264"
   height="337.05368"
   viewBox="0 0 844.83264 337.05368"
   sodipodi:docname="random_effect_nodprop.renamed.svg"
   inkscape:version="1.2 (dc2aeda, 2022-05-15)"
   xmlns:inkscape="http://www.inkscape.org/namespaces/inkscape"
   xmlns:sodipodi="http://sodipodi.sourceforge.net/DTD/sodipodi-0.dtd"
   xmlns="http://www.w3.org/2000/svg"
   xmlns:svg="http://www.w3.org/2000/svg">
  <defs
     id="defs1345">
    <clipPath
       clipPathUnits="userSpaceOnUse"
       id="clipPath1363">
      <path
         d="M 0,0 H 491.625 V 269.9294 H 0 Z"
         id="path1361" />
    </clipPath>
    <clipPath
       clipPathUnits="userSpaceOnUse"
       id="clipPath1849">
      <path
         d="M 0,0 H 491.625 V 269.9294 H 0 Z"
         id="path1847" />
    </clipPath>
    <clipPath
       clipPathUnits="userSpaceOnUse"
       id="clipPath1885">
      <path
         d="M 0,0 H 491.625 V 269.9294 H 0 Z"
         id="path1883" />
    </clipPath>
    <clipPath
       clipPathUnits="userSpaceOnUse"
       id="clipPath1935">
      <path
         d="M 0,0 H 491.625 V 269.9294 H 0 Z"
         id="path1933" />
    </clipPath>
    <clipPath
       clipPathUnits="userSpaceOnUse"
       id="clipPath10534">
      <path
         d="m 20.19924,251.36727 h 465.9463 V 23.18567 H 20.19924 Z"
         id="path10536"
         style="stroke-width:0.999998" />
    </clipPath>
    <clipPath
       clipPathUnits="userSpaceOnUse"
       id="clipPath10538">
      <path
         d="m 20.19924,251.36727 h 465.9463 V 23.18567 H 20.19924 Z"
         id="path10540"
         style="stroke-width:0.999998" />
    </clipPath>
    <clipPath
       clipPathUnits="userSpaceOnUse"
       id="clipPath10542">
      <path
         d="m 20.19924,251.36727 h 465.9463 V 23.18567 H 20.19924 Z"
         id="path10544"
         style="stroke-width:0.999998" />
    </clipPath>
    <clipPath
       clipPathUnits="userSpaceOnUse"
       id="clipPath10546">
      <path
         d="m 20.19924,251.36727 h 465.9463 V 23.18567 H 20.19924 Z"
         id="path10548"
         style="stroke-width:0.999998" />
    </clipPath>
    <clipPath
       clipPathUnits="userSpaceOnUse"
       id="clipPath10550">
      <path
         d="m 20.19924,251.36727 h 465.9463 V 23.18567 H 20.19924 Z"
         id="path10552"
         style="stroke-width:0.999998" />
    </clipPath>
    <clipPath
       clipPathUnits="userSpaceOnUse"
       id="clipPath10554">
      <path
         d="m 20.19924,251.36727 h 465.9463 V 23.18567 H 20.19924 Z"
         id="path10556"
         style="stroke-width:0.999998" />
    </clipPath>
    <clipPath
       clipPathUnits="userSpaceOnUse"
       id="clipPath10558">
      <path
         d="m 20.19924,251.36727 h 465.9463 V 23.18567 H 20.19924 Z"
         id="path10560"
         style="stroke-width:0.999998" />
    </clipPath>
    <clipPath
       clipPathUnits="userSpaceOnUse"
       id="clipPath10562">
      <path
         d="m 20.19924,251.36727 h 465.9463 V 23.18567 H 20.19924 Z"
         id="path10564"
         style="stroke-width:0.999998" />
    </clipPath>
    <clipPath
       clipPathUnits="userSpaceOnUse"
       id="clipPath10566">
      <path
         d="m 20.19924,251.36727 h 465.9463 V 23.18567 H 20.19924 Z"
         id="path10568"
         style="stroke-width:0.999998" />
    </clipPath>
    <clipPath
       clipPathUnits="userSpaceOnUse"
       id="clipPath10570">
      <path
         d="m 20.19924,251.36727 h 465.9463 V 23.18567 H 20.19924 Z"
         id="path10572"
         style="stroke-width:0.999998" />
    </clipPath>
    <clipPath
       clipPathUnits="userSpaceOnUse"
       id="clipPath10574">
      <path
         d="m 20.19924,251.36727 h 465.9463 V 23.18567 H 20.19924 Z"
         id="path10576"
         style="stroke-width:0.999998" />
    </clipPath>
    <clipPath
       clipPathUnits="userSpaceOnUse"
       id="clipPath10578">
      <path
         d="m 20.19924,251.36727 h 465.9463 V 23.18567 H 20.19924 Z"
         id="path10580"
         style="stroke-width:0.999998" />
    </clipPath>
    <clipPath
       clipPathUnits="userSpaceOnUse"
       id="clipPath10582">
      <path
         d="m 20.19924,251.36727 h 465.9463 V 23.18567 H 20.19924 Z"
         id="path10584"
         style="stroke-width:0.999998" />
    </clipPath>
    <clipPath
       clipPathUnits="userSpaceOnUse"
       id="clipPath10586">
      <path
         d="m 20.19924,251.36727 h 465.9463 V 23.18567 H 20.19924 Z"
         id="path10588"
         style="stroke-width:0.999998" />
    </clipPath>
    <clipPath
       clipPathUnits="userSpaceOnUse"
       id="clipPath10590">
      <path
         d="m 20.19924,251.36727 h 465.9463 V 23.18567 H 20.19924 Z"
         id="path10592"
         style="stroke-width:0.999998" />
    </clipPath>
  </defs>
  <sodipodi:namedview
     id="namedview1343"
     pagecolor="#ffffff"
     bordercolor="#000000"
     borderopacity="0.25"
     inkscape:showpageshadow="2"
     inkscape:pageopacity="0.0"
     inkscape:pagecheckerboard="0"
     inkscape:deskcolor="#d1d1d1"
     showgrid="false"
     inkscape:zoom="1.3114539"
     inkscape:cx="498.3019"
     inkscape:cy="-6.8626123"
     inkscape:window-width="1421"
     inkscape:window-height="638"
     inkscape:window-x="19"
     inkscape:window-y="25"
     inkscape:window-maximized="0"
     inkscape:current-layer="g1349">
    <inkscape:page
       x="0"
       y="0"
       id="page1347"
       width="844.83264"
       height="337.05368"
       inkscape:export-filename="Page 1.png"
       inkscape:export-xdpi="300"
       inkscape:export-ydpi="300" />
  </sodipodi:namedview>
  <g
     id="g1349"
     inkscape:groupmode="layer"
     inkscape:label="Page 1"
     transform="matrix(1.3333333,0,0,-1.3333333,196.63859,328.99163)">
    <g
       id="g1351" />
    <g
       id="g1353">
      <path
         d="M 0,269.9294 H 35397 V -19164.99 H 0 Z"
         style="fill:#ffffff;fill-opacity:0;fill-rule:nonzero;stroke:none"
         id="path1355" />
    </g>
    <g
       id="g1377"
       transform="matrix(1,0,0,-0.91493442,0,248.5467)"
       clip-path="url(#clipPath10590)">
      <path
         d="M 20.19924,23.18566 H 486.1455 V 251.3673 H 20.19924 Z"
         style="fill:#ebebeb;fill-opacity:1;fill-rule:nonzero;stroke:#ffffff;stroke-width:1.06698;stroke-linecap:round;stroke-linejoin:round;stroke-miterlimit:10;stroke-dasharray:none;stroke-opacity:0"
         id="path1379" />
    </g>
    <g
       id="g1381"
       transform="matrix(1,0,0,-0.91441535,0,248.41623)"
       clip-path="url(#clipPath10586)">
      <path
         d="M 76.67758,251.3673 V 23.18566"
         style="fill:none;stroke:#ffffff;stroke-width:0.533489;stroke-linecap:butt;stroke-linejoin:round;stroke-miterlimit:10;stroke-dasharray:none;stroke-opacity:1"
         id="path1383" />
    </g>
    <g
       id="g1385"
       transform="matrix(1,0,0,-0.91441535,0,248.41623)"
       clip-path="url(#clipPath10582)">
      <path
         d="M 147.2755,251.3673 V 23.18566"
         style="fill:none;stroke:#ffffff;stroke-width:0.533489;stroke-linecap:butt;stroke-linejoin:round;stroke-miterlimit:10;stroke-dasharray:none;stroke-opacity:1"
         id="path1387" />
    </g>
    <g
       id="g1389"
       transform="matrix(1,0,0,-0.91441535,0,248.41623)"
       clip-path="url(#clipPath10578)">
      <path
         d="M 217.8734,251.3673 V 23.18566"
         style="fill:none;stroke:#ffffff;stroke-width:0.533489;stroke-linecap:butt;stroke-linejoin:round;stroke-miterlimit:10;stroke-dasharray:none;stroke-opacity:1"
         id="path1391" />
    </g>
    <g
       id="g1393"
       transform="matrix(1,0,0,-0.91441535,0,248.41623)"
       clip-path="url(#clipPath10574)">
      <path
         d="M 288.4714,251.3673 V 23.18566"
         style="fill:none;stroke:#ffffff;stroke-width:0.533489;stroke-linecap:butt;stroke-linejoin:round;stroke-miterlimit:10;stroke-dasharray:none;stroke-opacity:1"
         id="path1395" />
    </g>
    <g
       id="g1397"
       transform="matrix(1,0,0,-0.91441535,0,248.41623)"
       clip-path="url(#clipPath10570)">
      <path
         d="M 359.0693,251.3673 V 23.18566"
         style="fill:none;stroke:#ffffff;stroke-width:0.533489;stroke-linecap:butt;stroke-linejoin:round;stroke-miterlimit:10;stroke-dasharray:none;stroke-opacity:1"
         id="path1399" />
    </g>
    <g
       id="g1401"
       transform="matrix(1,0,0,-0.91441535,0,248.41623)"
       clip-path="url(#clipPath10566)">
      <path
         d="M 429.6672,251.3673 V 23.18566"
         style="fill:none;stroke:#ffffff;stroke-width:0.533489;stroke-linecap:butt;stroke-linejoin:round;stroke-miterlimit:10;stroke-dasharray:none;stroke-opacity:1"
         id="path1403" />
    </g>
    <g
       id="g1405"
       transform="matrix(1,0,0,-1,0,269.9294)">
      <path
         d="M 20.19924,240.9954 H 486.1455"
         style="fill:none;stroke:#ffffff;stroke-width:1.06698;stroke-linecap:butt;stroke-linejoin:round;stroke-miterlimit:10;stroke-dasharray:none;stroke-opacity:1"
         id="path1407" />
    </g>
    <g
       id="g1409"
       transform="matrix(1,0,0,-1,0,269.9294)">
      <path
         d="M 20.19924,223.7089 H 486.1455"
         style="fill:none;stroke:#ffffff;stroke-width:1.06698;stroke-linecap:butt;stroke-linejoin:round;stroke-miterlimit:10;stroke-dasharray:none;stroke-opacity:1"
         id="path1411" />
    </g>
    <g
       id="g1413"
       transform="matrix(1,0,0,-1,0,269.9294)">
      <path
         d="M 20.19924,206.4224 H 486.1455"
         style="fill:none;stroke:#ffffff;stroke-width:1.06698;stroke-linecap:butt;stroke-linejoin:round;stroke-miterlimit:10;stroke-dasharray:none;stroke-opacity:1"
         id="path1415" />
    </g>
    <g
       id="g1417"
       transform="matrix(1,0,0,-1,0,269.9294)">
      <path
         d="M 20.19924,189.1359 H 486.1455"
         style="fill:none;stroke:#ffffff;stroke-width:1.06698;stroke-linecap:butt;stroke-linejoin:round;stroke-miterlimit:10;stroke-dasharray:none;stroke-opacity:1"
         id="path1419" />
    </g>
    <g
       id="g1425"
       transform="matrix(1,0,0,-1,0,252.64426)">
      <path
         d="M 20.19924,154.563 H 486.1455"
         style="fill:none;stroke:#ffffff;stroke-width:1.06698;stroke-linecap:butt;stroke-linejoin:round;stroke-miterlimit:10;stroke-dasharray:none;stroke-opacity:1"
         id="path1427" />
    </g>
    <g
       id="g1429"
       transform="matrix(1,0,0,-1,0,252.64426)">
      <path
         d="M 20.19924,137.2765 H 486.1455"
         style="fill:none;stroke:#ffffff;stroke-width:1.06698;stroke-linecap:butt;stroke-linejoin:round;stroke-miterlimit:10;stroke-dasharray:none;stroke-opacity:1"
         id="path1431" />
    </g>
    <g
       id="g1433"
       transform="matrix(1,0,0,-1,0,252.64426)">
      <path
         d="M 20.19924,119.99 H 486.1455"
         style="fill:none;stroke:#ffffff;stroke-width:1.06698;stroke-linecap:butt;stroke-linejoin:round;stroke-miterlimit:10;stroke-dasharray:none;stroke-opacity:1"
         id="path1435" />
    </g>
    <g
       id="g1437"
       transform="matrix(1,0,0,-1,0,252.64426)">
      <path
         d="M 20.19924,102.7035 H 486.1455"
         style="fill:none;stroke:#ffffff;stroke-width:1.06698;stroke-linecap:butt;stroke-linejoin:round;stroke-miterlimit:10;stroke-dasharray:none;stroke-opacity:1"
         id="path1439" />
    </g>
    <g
       id="g1445"
       transform="matrix(1,0,0,-1,0,235.50209)">
      <path
         d="M 20.19924,68.13053 H 486.1455"
         style="fill:none;stroke:#ffffff;stroke-width:1.06698;stroke-linecap:butt;stroke-linejoin:round;stroke-miterlimit:10;stroke-dasharray:none;stroke-opacity:1"
         id="path1447" />
    </g>
    <g
       id="g1449"
       transform="matrix(1,0,0,-1,0,235.50209)">
      <path
         d="M 20.19924,50.84404 H 486.1455"
         style="fill:none;stroke:#ffffff;stroke-width:1.06698;stroke-linecap:butt;stroke-linejoin:round;stroke-miterlimit:10;stroke-dasharray:none;stroke-opacity:1"
         id="path1451" />
    </g>
    <g
       id="g1453"
       transform="matrix(1,0,0,-1,0,235.50209)">
      <path
         d="M 20.19924,33.55755 H 486.1455"
         style="fill:none;stroke:#ffffff;stroke-width:1.06698;stroke-linecap:butt;stroke-linejoin:round;stroke-miterlimit:10;stroke-dasharray:none;stroke-opacity:1"
         id="path1455" />
    </g>
    <g
       id="g1457"
       transform="matrix(1,0,0,-0.91441535,0,248.41623)"
       clip-path="url(#clipPath10562)">
      <path
         d="M 41.37862,251.3673 V 23.18566"
         style="fill:none;stroke:#ffffff;stroke-width:1.06698;stroke-linecap:butt;stroke-linejoin:round;stroke-miterlimit:10;stroke-dasharray:none;stroke-opacity:1"
         id="path1459" />
    </g>
    <g
       id="g1461"
       transform="matrix(1,0,0,-0.91441535,0,248.41623)"
       clip-path="url(#clipPath10558)">
      <path
         d="M 111.9765,251.3673 V 23.18566"
         style="fill:none;stroke:#ffffff;stroke-width:1.06698;stroke-linecap:butt;stroke-linejoin:round;stroke-miterlimit:10;stroke-dasharray:none;stroke-opacity:1"
         id="path1463" />
    </g>
    <g
       id="g1465"
       transform="matrix(1,0,0,-0.91441535,0,248.41623)"
       clip-path="url(#clipPath10554)">
      <path
         d="M 182.5745,251.3673 V 23.18566"
         style="fill:none;stroke:#ffffff;stroke-width:1.06698;stroke-linecap:butt;stroke-linejoin:round;stroke-miterlimit:10;stroke-dasharray:none;stroke-opacity:1"
         id="path1467" />
    </g>
    <g
       id="g1469"
       transform="matrix(1,0,0,-0.91441535,0,248.41623)"
       clip-path="url(#clipPath10550)">
      <path
         d="M 253.1724,251.3673 V 23.18566"
         style="fill:none;stroke:#ffffff;stroke-width:1.06698;stroke-linecap:butt;stroke-linejoin:round;stroke-miterlimit:10;stroke-dasharray:none;stroke-opacity:1"
         id="path1471" />
    </g>
    <g
       id="g1477"
       transform="matrix(1,0,0,-0.91441535,0,248.41623)"
       clip-path="url(#clipPath10542)">
      <path
         d="M 394.3682,251.3673 V 23.18566"
         style="fill:none;stroke:#ffffff;stroke-width:1.06698;stroke-linecap:butt;stroke-linejoin:round;stroke-miterlimit:10;stroke-dasharray:none;stroke-opacity:1"
         id="path1479" />
    </g>
    <g
       id="g1481"
       transform="matrix(1,0,0,-0.91441535,0,248.41623)"
       clip-path="url(#clipPath10538)">
      <path
         d="M 464.9662,251.3673 V 23.18566"
         style="fill:none;stroke:#ffffff;stroke-width:1.06698;stroke-linecap:butt;stroke-linejoin:round;stroke-miterlimit:10;stroke-dasharray:none;stroke-opacity:1"
         id="path1483" />
    </g>
    <g
       id="g1485"
       transform="matrix(1,0,0,-0.91441535,0,248.41623)"
       clip-path="url(#clipPath10534)">
      <path
         d="M 323.7703,251.3673 V 23.18566"
         style="fill:none;stroke:#ffffff;stroke-width:2.4007;stroke-linecap:butt;stroke-linejoin:round;stroke-miterlimit:10;stroke-dasharray:none;stroke-opacity:1"
         id="path1487" />
    </g>
    <g
       id="g1489"
       transform="matrix(1,0,0,-1,0,269.9294)">
      <path
         d="m 158.2198,240.9954 c 0,1.6689 -1.3529,3.0218 -3.0218,3.0218 -1.6689,0 -3.0218,-1.3529 -3.0218,-3.0218 0,-1.6689 1.3529,-3.0218 3.0218,-3.0218 1.6689,0 3.0218,1.3529 3.0218,3.0218 z"
         style="fill:#e41a1c;fill-opacity:1;fill-rule:nonzero;stroke:#e41a1c;stroke-width:0.708661;stroke-linecap:round;stroke-linejoin:round;stroke-miterlimit:10;stroke-dasharray:none;stroke-opacity:1"
         id="path1491" />
    </g>
    <g
       id="g1493"
       transform="matrix(1,0,0,-1,0,269.9294)">
      <path
         d="m 342.1759,223.7089 c 0,1.6689 -1.3529,3.0218 -3.0218,3.0218 -1.6689,0 -3.0217,-1.3529 -3.0217,-3.0218 0,-1.6689 1.3528,-3.0218 3.0217,-3.0218 1.6689,0 3.0218,1.3529 3.0218,3.0218 z"
         style="fill:#377eb8;fill-opacity:1;fill-rule:nonzero;stroke:#377eb8;stroke-width:0.708661;stroke-linecap:round;stroke-linejoin:round;stroke-miterlimit:10;stroke-dasharray:none;stroke-opacity:1"
         id="path1495" />
    </g>
    <g
       id="g1497"
       transform="matrix(1,0,0,-1,0,269.9294)">
      <path
         d="m 246.8052,206.4224 c 0,1.6689 -1.3529,3.0218 -3.0218,3.0218 -1.6689,0 -3.0218,-1.3529 -3.0218,-3.0218 0,-1.6689 1.3529,-3.0218 3.0218,-3.0218 1.6689,0 3.0218,1.3529 3.0218,3.0218 z"
         style="fill:#e41a1c;fill-opacity:1;fill-rule:nonzero;stroke:#e41a1c;stroke-width:0.708661;stroke-linecap:round;stroke-linejoin:round;stroke-miterlimit:10;stroke-dasharray:none;stroke-opacity:1"
         id="path1499" />
    </g>
    <g
       id="g1501"
       transform="matrix(1,0,0,-1,0,269.9294)">
      <path
         d="m 337.6121,189.1359 c 0,1.6689 -1.3529,3.0218 -3.0217,3.0218 -1.6689,0 -3.0218,-1.3529 -3.0218,-3.0218 0,-1.6689 1.3529,-3.0217 3.0218,-3.0217 1.6688,0 3.0217,1.3528 3.0217,3.0217 z"
         style="fill:#377eb8;fill-opacity:1;fill-rule:nonzero;stroke:#377eb8;stroke-width:0.708661;stroke-linecap:round;stroke-linejoin:round;stroke-miterlimit:10;stroke-dasharray:none;stroke-opacity:1"
         id="path1503" />
    </g>
    <g
       id="g1509"
       transform="matrix(1,0,0,-1,0,252.64426)">
      <path
         d="m 332.4927,154.563 c 0,1.6688 -1.3529,3.0217 -3.0218,3.0217 -1.6688,0 -3.0217,-1.3529 -3.0217,-3.0217 0,-1.6689 1.3529,-3.0218 3.0217,-3.0218 1.6689,0 3.0218,1.3529 3.0218,3.0218 z"
         style="fill:#377eb8;fill-opacity:1;fill-rule:nonzero;stroke:#377eb8;stroke-width:0.708661;stroke-linecap:round;stroke-linejoin:round;stroke-miterlimit:10;stroke-dasharray:none;stroke-opacity:1"
         id="path1511" />
    </g>
    <g
       id="g1513"
       transform="matrix(1,0,0,-1,0,252.64426)">
      <path
         d="m 316.551,137.2765 c 0,1.6689 -1.3529,3.0217 -3.0218,3.0217 -1.6689,0 -3.0218,-1.3528 -3.0218,-3.0217 0,-1.6689 1.3529,-3.0218 3.0218,-3.0218 1.6689,0 3.0218,1.3529 3.0218,3.0218 z"
         style="fill:#e41a1c;fill-opacity:1;fill-rule:nonzero;stroke:#e41a1c;stroke-width:0.708661;stroke-linecap:round;stroke-linejoin:round;stroke-miterlimit:10;stroke-dasharray:none;stroke-opacity:1"
         id="path1515" />
    </g>
    <g
       id="g1517"
       transform="matrix(1,0,0,-1,0,252.64426)">
      <path
         d="m 394.8689,119.99 c 0,1.6689 -1.3529,3.0218 -3.0218,3.0218 -1.6689,0 -3.0218,-1.3529 -3.0218,-3.0218 0,-1.6689 1.3529,-3.0218 3.0218,-3.0218 1.6689,0 3.0218,1.3529 3.0218,3.0218 z"
         style="fill:#377eb8;fill-opacity:1;fill-rule:nonzero;stroke:#377eb8;stroke-width:0.708661;stroke-linecap:round;stroke-linejoin:round;stroke-miterlimit:10;stroke-dasharray:none;stroke-opacity:1"
         id="path1519" />
    </g>
    <g
       id="g1521"
       transform="matrix(1,0,0,-1,0,252.64426)">
      <path
         d="m 352.1309,102.7035 c 0,1.6689 -1.3529,3.0218 -3.0218,3.0218 -1.6689,0 -3.0218,-1.3529 -3.0218,-3.0218 0,-1.6689 1.3529,-3.02178 3.0218,-3.02178 1.6689,0 3.0218,1.35288 3.0218,3.02178 z"
         style="fill:#377eb8;fill-opacity:1;fill-rule:nonzero;stroke:#377eb8;stroke-width:0.708661;stroke-linecap:round;stroke-linejoin:round;stroke-miterlimit:10;stroke-dasharray:none;stroke-opacity:1"
         id="path1523" />
    </g>
    <g
       id="g1529"
       transform="matrix(1,0,0,-1,0,235.50209)">
      <path
         d="m 341.5539,68.13053 c 0,1.66888 -1.3529,3.02177 -3.0217,3.02177 -1.6689,0 -3.0218,-1.35289 -3.0218,-3.02177 0,-1.66889 1.3529,-3.02178 3.0218,-3.02178 1.6688,0 3.0217,1.35289 3.0217,3.02178 z"
         style="fill:#377eb8;fill-opacity:1;fill-rule:nonzero;stroke:#377eb8;stroke-width:0.708661;stroke-linecap:round;stroke-linejoin:round;stroke-miterlimit:10;stroke-dasharray:none;stroke-opacity:1"
         id="path1531" />
    </g>
    <g
       id="g1533"
       transform="matrix(1,0,0,-1,0,235.50209)">
      <path
         d="m 346.22,50.84404 c 0,1.66888 -1.3529,3.02178 -3.0218,3.02178 -1.6688,0 -3.0217,-1.3529 -3.0217,-3.02178 0,-1.66888 1.3529,-3.02178 3.0217,-3.02178 1.6689,0 3.0218,1.3529 3.0218,3.02178 z"
         style="fill:#377eb8;fill-opacity:1;fill-rule:nonzero;stroke:#377eb8;stroke-width:0.708661;stroke-linecap:round;stroke-linejoin:round;stroke-miterlimit:10;stroke-dasharray:none;stroke-opacity:1"
         id="path1535" />
    </g>
    <g
       id="g1537"
       transform="matrix(1,0,0,-1,0,235.50209)">
      <path
         d="m 380.0783,33.55755 c 0,1.66888 -1.3529,3.02178 -3.0218,3.02178 -1.6688,0 -3.0217,-1.3529 -3.0217,-3.02178 0,-1.66888 1.3529,-3.02177 3.0217,-3.02177 1.6689,0 3.0218,1.35289 3.0218,3.02177 z"
         style="fill:#377eb8;fill-opacity:1;fill-rule:nonzero;stroke:#377eb8;stroke-width:0.708661;stroke-linecap:round;stroke-linejoin:round;stroke-miterlimit:10;stroke-dasharray:none;stroke-opacity:1"
         id="path1539" />
    </g>
    <g
       id="g1541"
       transform="matrix(1,0,0,-1,0,269.9294)">
      <path
         d="m 162.8609,240.9954 v 0"
         style="fill:none;stroke:#e41a1c;stroke-width:1.49377;stroke-linecap:butt;stroke-linejoin:round;stroke-miterlimit:10;stroke-dasharray:none;stroke-opacity:1"
         id="path1543" />
    </g>
    <g
       id="g1545"
       transform="matrix(1,0,0,-1,0,269.9294)">
      <path
         d="M 162.8609,240.9954 H 147.5352"
         style="fill:none;stroke:#e41a1c;stroke-width:1.49377;stroke-linecap:butt;stroke-linejoin:round;stroke-miterlimit:10;stroke-dasharray:none;stroke-opacity:1"
         id="path1547" />
    </g>
    <g
       id="g1549"
       transform="matrix(1,0,0,-1,0,269.9294)">
      <path
         d="m 147.5352,240.9954 v 0"
         style="fill:none;stroke:#e41a1c;stroke-width:1.49377;stroke-linecap:butt;stroke-linejoin:round;stroke-miterlimit:10;stroke-dasharray:none;stroke-opacity:1"
         id="path1551" />
    </g>
    <g
       id="g1553"
       transform="matrix(1,0,0,-1,0,269.9294)">
      <path
         d="m 344.5718,223.7089 v 0"
         style="fill:none;stroke:#377eb8;stroke-width:1.49377;stroke-linecap:butt;stroke-linejoin:round;stroke-miterlimit:10;stroke-dasharray:none;stroke-opacity:1"
         id="path1555" />
    </g>
    <g
       id="g1557"
       transform="matrix(1,0,0,-1,0,269.9294)">
      <path
         d="M 344.5718,223.7089 H 333.7365"
         style="fill:none;stroke:#377eb8;stroke-width:1.49377;stroke-linecap:butt;stroke-linejoin:round;stroke-miterlimit:10;stroke-dasharray:none;stroke-opacity:1"
         id="path1559" />
    </g>
    <g
       id="g1561"
       transform="matrix(1,0,0,-1,0,269.9294)">
      <path
         d="m 333.7365,223.7089 v 0"
         style="fill:none;stroke:#377eb8;stroke-width:1.49377;stroke-linecap:butt;stroke-linejoin:round;stroke-miterlimit:10;stroke-dasharray:none;stroke-opacity:1"
         id="path1563" />
    </g>
    <g
       id="g1565"
       transform="matrix(1,0,0,-1,0,269.9294)">
      <path
         d="m 253.3858,206.4224 v 0"
         style="fill:none;stroke:#e41a1c;stroke-width:1.49377;stroke-linecap:butt;stroke-linejoin:round;stroke-miterlimit:10;stroke-dasharray:none;stroke-opacity:1"
         id="path1567" />
    </g>
    <g
       id="g1569"
       transform="matrix(1,0,0,-1,0,269.9294)">
      <path
         d="M 253.3858,206.4224 H 234.181"
         style="fill:none;stroke:#e41a1c;stroke-width:1.49377;stroke-linecap:butt;stroke-linejoin:round;stroke-miterlimit:10;stroke-dasharray:none;stroke-opacity:1"
         id="path1571" />
    </g>
    <g
       id="g1573"
       transform="matrix(1,0,0,-1,0,269.9294)">
      <path
         d="m 234.181,206.4224 v 0"
         style="fill:none;stroke:#e41a1c;stroke-width:1.49377;stroke-linecap:butt;stroke-linejoin:round;stroke-miterlimit:10;stroke-dasharray:none;stroke-opacity:1"
         id="path1575" />
    </g>
    <g
       id="g1577"
       transform="matrix(1,0,0,-1,0,269.9294)">
      <path
         d="m 343.1127,189.1359 v 0"
         style="fill:none;stroke:#377eb8;stroke-width:1.49377;stroke-linecap:butt;stroke-linejoin:round;stroke-miterlimit:10;stroke-dasharray:none;stroke-opacity:1"
         id="path1579" />
    </g>
    <g
       id="g1581"
       transform="matrix(1,0,0,-1,0,269.9294)">
      <path
         d="M 343.1127,189.1359 H 326.068"
         style="fill:none;stroke:#377eb8;stroke-width:1.49377;stroke-linecap:butt;stroke-linejoin:round;stroke-miterlimit:10;stroke-dasharray:none;stroke-opacity:1"
         id="path1583" />
    </g>
    <g
       id="g1585"
       transform="matrix(1,0,0,-1,0,269.9294)">
      <path
         d="m 326.068,189.1359 v 0"
         style="fill:none;stroke:#377eb8;stroke-width:1.49377;stroke-linecap:butt;stroke-linejoin:round;stroke-miterlimit:10;stroke-dasharray:none;stroke-opacity:1"
         id="path1587" />
    </g>
    <g
       id="g1601"
       transform="matrix(1,0,0,-1,0,252.64426)">
      <path
         d="m 336.7783,154.563 v 0"
         style="fill:none;stroke:#377eb8;stroke-width:1.49377;stroke-linecap:butt;stroke-linejoin:round;stroke-miterlimit:10;stroke-dasharray:none;stroke-opacity:1"
         id="path1603" />
    </g>
    <g
       id="g1605"
       transform="matrix(1,0,0,-1,0,252.64426)">
      <path
         d="M 336.7783,154.563 H 322.1636"
         style="fill:none;stroke:#377eb8;stroke-width:1.49377;stroke-linecap:butt;stroke-linejoin:round;stroke-miterlimit:10;stroke-dasharray:none;stroke-opacity:1"
         id="path1607" />
    </g>
    <g
       id="g1609"
       transform="matrix(1,0,0,-1,0,252.64426)">
      <path
         d="m 322.1636,154.563 v 0"
         style="fill:none;stroke:#377eb8;stroke-width:1.49377;stroke-linecap:butt;stroke-linejoin:round;stroke-miterlimit:10;stroke-dasharray:none;stroke-opacity:1"
         id="path1611" />
    </g>
    <g
       id="g1613"
       transform="matrix(1,0,0,-1,0,252.64426)">
      <path
         d="m 320.4547,137.2765 v 0"
         style="fill:none;stroke:#e41a1c;stroke-width:1.49377;stroke-linecap:butt;stroke-linejoin:round;stroke-miterlimit:10;stroke-dasharray:none;stroke-opacity:1"
         id="path1615" />
    </g>
    <g
       id="g1617"
       transform="matrix(1,0,0,-1,0,252.64426)">
      <path
         d="m 320.4547,137.2765 h -13.851"
         style="fill:none;stroke:#e41a1c;stroke-width:1.49377;stroke-linecap:butt;stroke-linejoin:round;stroke-miterlimit:10;stroke-dasharray:none;stroke-opacity:1"
         id="path1619" />
    </g>
    <g
       id="g1621"
       transform="matrix(1,0,0,-1,0,252.64426)">
      <path
         d="m 306.6037,137.2765 v 0"
         style="fill:none;stroke:#e41a1c;stroke-width:1.49377;stroke-linecap:butt;stroke-linejoin:round;stroke-miterlimit:10;stroke-dasharray:none;stroke-opacity:1"
         id="path1623" />
    </g>
    <g
       id="g1625"
       transform="matrix(1,0,0,-1,0,252.64426)">
      <path
         d="m 398.0039,119.99 v 0"
         style="fill:none;stroke:#377eb8;stroke-width:1.49377;stroke-linecap:butt;stroke-linejoin:round;stroke-miterlimit:10;stroke-dasharray:none;stroke-opacity:1"
         id="path1627" />
    </g>
    <g
       id="g1629"
       transform="matrix(1,0,0,-1,0,252.64426)">
      <path
         d="M 398.0039,119.99 H 385.6903"
         style="fill:none;stroke:#377eb8;stroke-width:1.49377;stroke-linecap:butt;stroke-linejoin:round;stroke-miterlimit:10;stroke-dasharray:none;stroke-opacity:1"
         id="path1631" />
    </g>
    <g
       id="g1633"
       transform="matrix(1,0,0,-1,0,252.64426)">
      <path
         d="m 385.6903,119.99 v 0"
         style="fill:none;stroke:#377eb8;stroke-width:1.49377;stroke-linecap:butt;stroke-linejoin:round;stroke-miterlimit:10;stroke-dasharray:none;stroke-opacity:1"
         id="path1635" />
    </g>
    <g
       id="g1637"
       transform="matrix(1,0,0,-1,0,252.64426)">
      <path
         d="m 358.3231,102.7035 v 0"
         style="fill:none;stroke:#377eb8;stroke-width:1.49377;stroke-linecap:butt;stroke-linejoin:round;stroke-miterlimit:10;stroke-dasharray:none;stroke-opacity:1"
         id="path1639" />
    </g>
    <g
       id="g1641"
       transform="matrix(1,0,0,-1,0,252.64426)">
      <path
         d="M 358.3231,102.7035 H 339.895"
         style="fill:none;stroke:#377eb8;stroke-width:1.49377;stroke-linecap:butt;stroke-linejoin:round;stroke-miterlimit:10;stroke-dasharray:none;stroke-opacity:1"
         id="path1643" />
    </g>
    <g
       id="g1645"
       transform="matrix(1,0,0,-1,0,252.64426)">
      <path
         d="m 339.895,102.7035 v 0"
         style="fill:none;stroke:#377eb8;stroke-width:1.49377;stroke-linecap:butt;stroke-linejoin:round;stroke-miterlimit:10;stroke-dasharray:none;stroke-opacity:1"
         id="path1647" />
    </g>
    <g
       id="g1661"
       transform="matrix(1,0,0,-1,0,235.50209)">
      <path
         d="m 355.1266,68.13053 v 0"
         style="fill:none;stroke:#377eb8;stroke-width:1.49377;stroke-linecap:butt;stroke-linejoin:round;stroke-miterlimit:10;stroke-dasharray:none;stroke-opacity:1"
         id="path1663" />
    </g>
    <g
       id="g1665"
       transform="matrix(1,0,0,-1,0,235.50209)">
      <path
         d="M 355.1266,68.13053 H 321.9377"
         style="fill:none;stroke:#377eb8;stroke-width:1.49377;stroke-linecap:butt;stroke-linejoin:round;stroke-miterlimit:10;stroke-dasharray:none;stroke-opacity:1"
         id="path1667" />
    </g>
    <g
       id="g1669"
       transform="matrix(1,0,0,-1,0,235.50209)">
      <path
         d="m 321.9377,68.13053 v 0"
         style="fill:none;stroke:#377eb8;stroke-width:1.49377;stroke-linecap:butt;stroke-linejoin:round;stroke-miterlimit:10;stroke-dasharray:none;stroke-opacity:1"
         id="path1671" />
    </g>
    <g
       id="g1673"
       transform="matrix(1,0,0,-1,0,235.50209)">
      <path
         d="m 350.1818,50.84404 v 0"
         style="fill:none;stroke:#377eb8;stroke-width:1.49377;stroke-linecap:butt;stroke-linejoin:round;stroke-miterlimit:10;stroke-dasharray:none;stroke-opacity:1"
         id="path1675" />
    </g>
    <g
       id="g1677"
       transform="matrix(1,0,0,-1,0,235.50209)">
      <path
         d="M 350.1818,50.84404 H 336.2147"
         style="fill:none;stroke:#377eb8;stroke-width:1.49377;stroke-linecap:butt;stroke-linejoin:round;stroke-miterlimit:10;stroke-dasharray:none;stroke-opacity:1"
         id="path1679" />
    </g>
    <g
       id="g1681"
       transform="matrix(1,0,0,-1,0,235.50209)">
      <path
         d="m 336.2147,50.84404 v 0"
         style="fill:none;stroke:#377eb8;stroke-width:1.49377;stroke-linecap:butt;stroke-linejoin:round;stroke-miterlimit:10;stroke-dasharray:none;stroke-opacity:1"
         id="path1683" />
    </g>
    <g
       id="g1685"
       transform="matrix(1,0,0,-1,0,235.50209)">
      <path
         d="m 391.694,33.55755 v 0"
         style="fill:none;stroke:#377eb8;stroke-width:1.49377;stroke-linecap:butt;stroke-linejoin:round;stroke-miterlimit:10;stroke-dasharray:none;stroke-opacity:1"
         id="path1687" />
    </g>
    <g
       id="g1689"
       transform="matrix(1,0,0,-1,0,235.50209)">
      <path
         d="M 391.694,33.55755 H 362.4191"
         style="fill:none;stroke:#377eb8;stroke-width:1.49377;stroke-linecap:butt;stroke-linejoin:round;stroke-miterlimit:10;stroke-dasharray:none;stroke-opacity:1"
         id="path1691" />
    </g>
    <g
       id="g1693"
       transform="matrix(1,0,0,-1,0,235.50209)">
      <path
         d="m 362.4191,33.55755 v 0"
         style="fill:none;stroke:#377eb8;stroke-width:1.49377;stroke-linecap:butt;stroke-linejoin:round;stroke-miterlimit:10;stroke-dasharray:none;stroke-opacity:1"
         id="path1695" />
    </g>
    <g
       id="g1791"
       transform="matrix(1,0,0,-1,0,269.9294)">
      <path
         d="m 17.45951,240.9954 h 2.73973"
         style="fill:none;stroke:#333333;stroke-width:1.06698;stroke-linecap:butt;stroke-linejoin:round;stroke-miterlimit:10;stroke-dasharray:none;stroke-opacity:1"
         id="path1793" />
    </g>
    <g
       id="g1795"
       transform="matrix(1,0,0,-1,0,269.9294)">
      <path
         d="m 17.45951,223.7089 h 2.73973"
         style="fill:none;stroke:#333333;stroke-width:1.06698;stroke-linecap:butt;stroke-linejoin:round;stroke-miterlimit:10;stroke-dasharray:none;stroke-opacity:1"
         id="path1797" />
    </g>
    <g
       id="g1799"
       transform="matrix(1,0,0,-1,0,269.9294)">
      <path
         d="m 17.45951,206.4224 h 2.73973"
         style="fill:none;stroke:#333333;stroke-width:1.06698;stroke-linecap:butt;stroke-linejoin:round;stroke-miterlimit:10;stroke-dasharray:none;stroke-opacity:1"
         id="path1801" />
    </g>
    <g
       id="g1803"
       transform="matrix(1,0,0,-1,0,269.9294)">
      <path
         d="m 17.45951,189.1359 h 2.73973"
         style="fill:none;stroke:#333333;stroke-width:1.06698;stroke-linecap:butt;stroke-linejoin:round;stroke-miterlimit:10;stroke-dasharray:none;stroke-opacity:1"
         id="path1805" />
    </g>
    <g
       id="g1807"
       transform="matrix(1,0,0,-1,0,269.9294)">
      <path
         d="m 17.45951,171.8494 h 2.73973"
         style="fill:none;stroke:#333333;stroke-width:1.06698;stroke-linecap:butt;stroke-linejoin:round;stroke-miterlimit:10;stroke-dasharray:none;stroke-opacity:1"
         id="path1809" />
    </g>
    <g
       id="g1815"
       transform="matrix(1,0,0,-1,0,252.64426)">
      <path
         d="m 17.45951,137.2765 h 2.73973"
         style="fill:none;stroke:#333333;stroke-width:1.06698;stroke-linecap:butt;stroke-linejoin:round;stroke-miterlimit:10;stroke-dasharray:none;stroke-opacity:1"
         id="path1817" />
    </g>
    <g
       id="g1819"
       transform="matrix(1,0,0,-1,0,252.64426)">
      <path
         d="m 17.45951,119.99 h 2.73973"
         style="fill:none;stroke:#333333;stroke-width:1.06698;stroke-linecap:butt;stroke-linejoin:round;stroke-miterlimit:10;stroke-dasharray:none;stroke-opacity:1"
         id="path1821" />
    </g>
    <g
       id="g1823"
       transform="matrix(1,0,0,-1,0,252.64426)">
      <path
         d="m 17.45951,102.7035 h 2.73973"
         style="fill:none;stroke:#333333;stroke-width:1.06698;stroke-linecap:butt;stroke-linejoin:round;stroke-miterlimit:10;stroke-dasharray:none;stroke-opacity:1"
         id="path1825" />
    </g>
    <g
       id="g1827"
       transform="matrix(1,0,0,-1,0,252.64426)">
      <path
         d="m 17.45951,85.41701 h 2.73973"
         style="fill:none;stroke:#333333;stroke-width:1.06698;stroke-linecap:butt;stroke-linejoin:round;stroke-miterlimit:10;stroke-dasharray:none;stroke-opacity:1"
         id="path1829" />
    </g>
    <g
       id="g1831"
       transform="matrix(1,0,0,-1,0,252.64426)">
      <path
         d="m 17.45951,68.13053 h 2.73973"
         style="fill:none;stroke:#333333;stroke-width:1.06698;stroke-linecap:butt;stroke-linejoin:round;stroke-miterlimit:10;stroke-dasharray:none;stroke-opacity:1"
         id="path1833" />
    </g>
    <g
       id="g1835"
       transform="matrix(1,0,0,-1,0,252.64426)">
      <path
         d="m 17.45951,50.84404 h 2.73973"
         style="fill:none;stroke:#333333;stroke-width:1.06698;stroke-linecap:butt;stroke-linejoin:round;stroke-miterlimit:10;stroke-dasharray:none;stroke-opacity:1"
         id="path1837" />
    </g>
    <g
       id="g1843">
      <g
         id="g1845"
         clip-path="url(#clipPath1849)">
        <g
           id="g1851"
           transform="matrix(1,0,0,-1,0,269.9294)">
          <path
             d="m 41.37862,254.107 v -2.7397"
             style="fill:none;stroke:#333333;stroke-width:1.06698;stroke-linecap:butt;stroke-linejoin:round;stroke-miterlimit:10;stroke-dasharray:none;stroke-opacity:1"
             id="path1853" />
        </g>
        <g
           id="g1855"
           transform="matrix(1,0,0,-1,0,269.9294)">
          <path
             d="m 111.9765,254.107 v -2.7397"
             style="fill:none;stroke:#333333;stroke-width:1.06698;stroke-linecap:butt;stroke-linejoin:round;stroke-miterlimit:10;stroke-dasharray:none;stroke-opacity:1"
             id="path1857" />
        </g>
        <g
           id="g1859"
           transform="matrix(1,0,0,-1,0,269.9294)">
          <path
             d="m 182.5745,254.107 v -2.7397"
             style="fill:none;stroke:#333333;stroke-width:1.06698;stroke-linecap:butt;stroke-linejoin:round;stroke-miterlimit:10;stroke-dasharray:none;stroke-opacity:1"
             id="path1861" />
        </g>
        <g
           id="g1863"
           transform="matrix(1,0,0,-1,0,269.9294)">
          <path
             d="m 253.1724,254.107 v -2.7397"
             style="fill:none;stroke:#333333;stroke-width:1.06698;stroke-linecap:butt;stroke-linejoin:round;stroke-miterlimit:10;stroke-dasharray:none;stroke-opacity:1"
             id="path1865" />
        </g>
        <g
           id="g1867"
           transform="matrix(1,0,0,-1,0,269.9294)">
          <path
             d="m 323.7703,254.107 v -2.7397"
             style="fill:none;stroke:#333333;stroke-width:1.06698;stroke-linecap:butt;stroke-linejoin:round;stroke-miterlimit:10;stroke-dasharray:none;stroke-opacity:1"
             id="path1869" />
        </g>
        <g
           id="g1871"
           transform="matrix(1,0,0,-1,0,269.9294)">
          <path
             d="m 394.3682,254.107 v -2.7397"
             style="fill:none;stroke:#333333;stroke-width:1.06698;stroke-linecap:butt;stroke-linejoin:round;stroke-miterlimit:10;stroke-dasharray:none;stroke-opacity:1"
             id="path1873" />
        </g>
        <g
           id="g1875"
           transform="matrix(1,0,0,-1,0,269.9294)">
          <path
             d="m 464.9662,254.107 v -2.7397"
             style="fill:none;stroke:#333333;stroke-width:1.06698;stroke-linecap:butt;stroke-linejoin:round;stroke-miterlimit:10;stroke-dasharray:none;stroke-opacity:1"
             id="path1877" />
        </g>
      </g>
    </g>
    <g
       id="g1879">
      <g
         id="g1881"
         clip-path="url(#clipPath1885)">
        <g
           id="g1887"
           transform="matrix(1,0,0,-1,0,269.9294)">
          <text
             xml:space="preserve"
             transform="translate(37.46631,262.598)"
             style="font-variant:normal;font-weight:normal;font-size:8.8px;font-family:Arial;-inkscape-font-specification:ArialMT;writing-mode:lr-tb;fill:#4d4d4d;fill-opacity:1;fill-rule:nonzero;stroke:none"
             id="text1891"><tspan
               x="0 2.9303999"
               y="0"
               sodipodi:role="line"
               id="tspan1889">-2</tspan></text>
        </g>
        <g
           id="g1893"
           transform="matrix(1,0,0,-1,0,269.9294)">
          <text
             xml:space="preserve"
             transform="translate(104.3947,262.598)"
             style="font-variant:normal;font-weight:normal;font-size:8.8px;font-family:Arial;-inkscape-font-specification:ArialMT;writing-mode:lr-tb;fill:#4d4d4d;fill-opacity:1;fill-rule:nonzero;stroke:none"
             id="text1897"><tspan
               x="0 2.9303999 7.8249602 10.2696"
               y="0"
               sodipodi:role="line"
               id="tspan1895">-1.5</tspan></text>
        </g>
        <g
           id="g1899"
           transform="matrix(1,0,0,-1,0,269.9294)">
          <text
             xml:space="preserve"
             transform="translate(178.6622,262.598)"
             style="font-variant:normal;font-weight:normal;font-size:8.8px;font-family:Arial;-inkscape-font-specification:ArialMT;writing-mode:lr-tb;fill:#4d4d4d;fill-opacity:1;fill-rule:nonzero;stroke:none"
             id="text1903"><tspan
               x="0 2.9303999"
               y="0"
               sodipodi:role="line"
               id="tspan1901">-1</tspan></text>
        </g>
        <g
           id="g1905"
           transform="matrix(1,0,0,-1,0,269.9294)">
          <text
             xml:space="preserve"
             transform="translate(245.5906,262.598)"
             style="font-variant:normal;font-weight:normal;font-size:8.8px;font-family:Arial;-inkscape-font-specification:ArialMT;writing-mode:lr-tb;fill:#4d4d4d;fill-opacity:1;fill-rule:nonzero;stroke:none"
             id="text1909"><tspan
               x="0 2.9303999 7.8249602 10.2696"
               y="0"
               sodipodi:role="line"
               id="tspan1907">-0.5</tspan></text>
        </g>
        <g
           id="g1911"
           transform="matrix(1,0,0,-1,0,269.9294)">
          <text
             xml:space="preserve"
             transform="translate(321.3232,262.598)"
             style="font-variant:normal;font-weight:normal;font-size:8.8px;font-family:Arial;-inkscape-font-specification:ArialMT;writing-mode:lr-tb;fill:#4d4d4d;fill-opacity:1;fill-rule:nonzero;stroke:none"
             id="text1915"><tspan
               x="0"
               y="0"
               id="tspan1913">0</tspan></text>
        </g>
        <g
           id="g1917"
           transform="matrix(1,0,0,-1,0,269.9294)">
          <text
             xml:space="preserve"
             transform="translate(388.2516,262.598)"
             style="font-variant:normal;font-weight:normal;font-size:8.8px;font-family:Arial;-inkscape-font-specification:ArialMT;writing-mode:lr-tb;fill:#4d4d4d;fill-opacity:1;fill-rule:nonzero;stroke:none"
             id="text1921"><tspan
               x="0 4.8945599 7.34272"
               y="0"
               sodipodi:role="line"
               id="tspan1919">0.5</tspan></text>
        </g>
        <g
           id="g1923"
           transform="matrix(1,0,0,-1,0,269.9294)">
          <text
             xml:space="preserve"
             transform="translate(462.5191,262.598)"
             style="font-variant:normal;font-weight:normal;font-size:8.8px;font-family:Arial;-inkscape-font-specification:ArialMT;writing-mode:lr-tb;fill:#4d4d4d;fill-opacity:1;fill-rule:nonzero;stroke:none"
             id="text1927"><tspan
               x="0"
               y="0"
               id="tspan1925">1</tspan></text>
        </g>
      </g>
    </g>
    <g
       id="g1929"
       transform="translate(20.219166,-18.601633)">
      <g
         id="g1931"
         clip-path="url(#clipPath1935)">
        <g
           id="g1937"
           transform="matrix(1,0,0,-1,0,269.9294)">
          <text
             xml:space="preserve"
             transform="translate(20.19924,14.92828)"
             style="font-variant:normal;font-weight:normal;font-size:13.2px;font-family:Arial;-inkscape-font-specification:ArialMT;writing-mode:lr-tb;fill:#000000;fill-opacity:1;fill-rule:nonzero;stroke:none"
             id="text1941"><tspan
               sodipodi:role="line"
               id="tspan1939"
               x="0"
               y="0">Phyloregion (random effect) vs. nodulating proportion</tspan></text>
          <text
             xml:space="preserve"
             style="font-variant:normal;font-weight:normal;font-size:13.2px;font-family:Arial;-inkscape-font-specification:ArialMT;writing-mode:lr-tb;fill:#000000;fill-opacity:1;fill-rule:nonzero;stroke:none"
             id="text2066"
             transform="translate(20.19924,14.92828)"><tspan
               sodipodi:role="line"
               id="tspan2064"
               x="0"
               y="0">Phyloregion (random effect) vs. nodulating proportion</tspan></text>
        </g>
      </g>
    </g>
    <text
       xml:space="preserve"
       style="font-variant:normal;font-weight:normal;font-size:13.2px;font-family:Arial;-inkscape-font-specification:ArialMT;writing-mode:lr-tb;fill:#000000;fill-opacity:1;fill-rule:nonzero;stroke:none"
       id="text2070"
       x="160.92464"
       y="5.89186"
       transform="scale(1,-1)"><tspan
         sodipodi:role="line"
         id="tspan2068"
         x="160.92464"
         y="5.89186">Normalized nodulation effect</tspan></text>
    <text
       xml:space="preserve"
       style="font-variant:normal;font-weight:normal;font-size:13.2px;font-family:Arial;-inkscape-font-specification:ArialMT;writing-mode:lr-tb;fill:#000000;fill-opacity:1;fill-rule:nonzero;stroke:none"
       id="text2074"
       transform="scale(1,-1)"
       x="83.283035"
       y="11.89186"><tspan
         sodipodi:role="line"
         id="tspan2072"
         x="83.283035"
         y="11.89186" /></text>
    <text
       xml:space="preserve"
       style="font-variant:normal;font-weight:normal;font-size:11px;font-family:Arial;-inkscape-font-specification:ArialMT;writing-mode:lr-tb;fill:#000000;fill-opacity:1;fill-rule:nonzero;stroke:none"
       id="text2084"
       x="-61.890572"
       y="-28.142092"
       transform="scale(1,-1)"><tspan
         sodipodi:role="line"
         id="tspan2082"
         x="-61.890572"
         y="-28.142092"
         style="font-size:11px">Guinean-Congo</tspan></text>
    <text
       xml:space="preserve"
       style="font-variant:normal;font-weight:normal;font-size:11px;font-family:Arial;-inkscape-font-specification:ArialMT;writing-mode:lr-tb;fill:#000000;fill-opacity:1;fill-rule:nonzero;stroke:none"
       id="text5650"
       x="-114.09223"
       y="-62.397141"
       transform="scale(1,-1)"><tspan
         sodipodi:role="line"
         id="tspan5648"
         x="-114.09223"
         y="-62.397141"
         style="font-size:11px">Central America-Carribean</tspan></text>
    <text
       xml:space="preserve"
       style="font-variant:normal;font-weight:normal;font-size:11px;font-family:Arial;-inkscape-font-specification:ArialMT;writing-mode:lr-tb;fill:#000000;fill-opacity:1;fill-rule:nonzero;stroke:none"
       id="text6380"
       x="-96.99604"
       y="-115.35716"
       transform="scale(1,-1)"><tspan
         sodipodi:role="line"
         id="tspan6378"
         x="-96.99604"
         y="-115.35716"
         style="font-size:11px">Guiana Shield-Amazon</tspan></text>
    <text
       xml:space="preserve"
       style="font-variant:normal;font-weight:normal;font-size:11px;font-family:Arial;-inkscape-font-specification:ArialMT;writing-mode:lr-tb;fill:#000000;fill-opacity:1;fill-rule:nonzero;stroke:none"
       id="text7836"
       x="-121.41303"
       y="-150.13412"
       transform="scale(1,-1)"><tspan
         sodipodi:role="line"
         id="tspan7834"
         x="-121.41303"
         y="-150.13412"
         style="font-size:11px">Andes-Temperate grassland</tspan></text>
    <text
       xml:space="preserve"
       style="font-variant:normal;font-weight:normal;font-size:11px;font-family:Arial;-inkscape-font-specification:ArialMT;writing-mode:lr-tb;fill:#000000;fill-opacity:1;fill-rule:nonzero;stroke:none"
       id="text10018"
       x="-147.46283"
       y="-97.174088"
       transform="scale(1,-1)"><tspan
         sodipodi:role="line"
         id="tspan10016"
         x="-147.46283"
         y="-97.174088"
         style="font-size:11px">Atlantic forsest-Caatinga-Cerrado</tspan></text>
    <text
       xml:space="preserve"
       style="font-variant:normal;font-weight:normal;font-size:11px;font-family:Arial;-inkscape-font-specification:ArialMT;writing-mode:lr-tb;fill:#000000;fill-opacity:1;fill-rule:nonzero;stroke:none"
       id="text10022"
       x="-53.855415"
       y="-80.072464"
       transform="scale(1,-1)"><tspan
         sodipodi:role="line"
         id="tspan10020"
         x="-53.855415"
         y="-80.072464"
         style="font-size:11px">North America</tspan></text>
    <text
       xml:space="preserve"
       style="font-variant:normal;font-weight:normal;font-size:11px;font-family:Arial;-inkscape-font-specification:ArialMT;writing-mode:lr-tb;fill:#000000;fill-opacity:1;fill-rule:nonzero;stroke:none"
       id="text10026"
       x="-92.801216"
       y="-45.413033"
       transform="scale(1,-1)"><tspan
         sodipodi:role="line"
         id="tspan10024"
         x="-92.801216"
         y="-45.413033"
         style="font-size:11px">West and South Africa</tspan></text>
    <text
       xml:space="preserve"
       style="font-variant:normal;font-weight:normal;font-size:11px;font-family:Arial;-inkscape-font-specification:ArialMT;writing-mode:lr-tb;fill:#000000;fill-opacity:1;fill-rule:nonzero;stroke:none"
       id="text10198"
       x="-78.326118"
       y="-132.34126"
       transform="scale(1,-1)"><tspan
         sodipodi:role="line"
         id="tspan10196"
         x="-78.326118"
         y="-132.34126"
         style="font-size:11px">South Asia-Malesia</tspan></text>
    <text
       xml:space="preserve"
       style="font-variant:normal;font-weight:normal;font-size:11px;font-family:Arial;-inkscape-font-specification:ArialMT;writing-mode:lr-tb;fill:#000000;fill-opacity:1;fill-rule:nonzero;stroke:none"
       id="text10202"
       x="-45.315376"
       y="-201.68898"
       transform="scale(1,-1)"><tspan
         sodipodi:role="line"
         id="tspan10200"
         x="-45.315376"
         y="-201.68898"
         style="font-size:11px">Madagascar</tspan></text>
    <text
       xml:space="preserve"
       style="font-variant:normal;font-weight:normal;font-size:11px;font-family:Arial;-inkscape-font-specification:ArialMT;writing-mode:lr-tb;fill:#000000;fill-opacity:1;fill-rule:nonzero;stroke:none"
       id="text10206"
       x="-80.775337"
       y="-167.36455"
       transform="scale(1,-1)"><tspan
         sodipodi:role="line"
         id="tspan10204"
         x="-80.775337"
         y="-167.36455"
         style="font-size:11px">Southwest Australia</tspan></text>
    <text
       xml:space="preserve"
       style="font-variant:normal;font-weight:normal;font-size:11px;font-family:Arial;-inkscape-font-specification:ArialMT;writing-mode:lr-tb;fill:#000000;fill-opacity:1;fill-rule:nonzero;stroke:none"
       id="text10210"
       x="-81.983833"
       y="-184.75302"
       transform="scale(1,-1)"><tspan
         sodipodi:role="line"
         id="tspan10208"
         x="-81.983833"
         y="-184.75302"
         style="font-size:11px">East-North Australia</tspan></text>
  </g>
</svg>
